<svg width="416" height="160" viewBox="0 0 416 160" fill="none" xmlns="http://www.w3.org/2000/svg">
<path fill-rule="evenodd" clip-rule="evenodd" d="M296.971 53.7284V62.5178H297.238C304.06 53.3289 314.091 52.3967 319.04 52.3967C340.039 52.3967 353.013 71.1741 353.013 89.1524C353.013 107.663 339.237 126.175 318.505 126.175C313.422 126.175 304.06 125.109 297.372 116.986H297.104V160H276.239V53.7284H296.971ZM314.091 71.1741C304.461 71.1741 296.569 78.4986 296.569 89.1524C296.569 99.9395 304.461 107.397 314.225 107.397C323.989 107.397 331.88 99.9395 331.88 89.1524C331.88 78.4986 323.989 71.1741 314.091 71.1741Z" fill="white"/>
<path d="M0 72.7722C0 103.136 23.4068 126.308 53.9025 126.308C74.5005 126.308 94.9648 114.988 102.187 95.2784L82.2582 86.0895C77.7106 97.4092 67.2778 105.4 54.17 105.4C35.5783 105.4 22.4705 90.6174 22.4705 72.5058C22.4705 54.6606 35.9796 40.0116 54.17 40.0116C67.2778 40.0116 77.5768 47.3361 81.9907 58.789L101.786 49.7332C94.6973 30.1568 74.9018 18.9703 54.3038 18.9703C24.3431 18.9703 0 42.6751 0 72.7722Z" fill="white"/>
<path d="M156.629 124.843H177.361V80.6294C177.361 65.9803 169.202 52.3967 151.145 52.3967C147.4 52.3967 137.502 53.5953 131.484 62.1183H131.35V16.44H110.484V124.843H131.35V85.1573C131.35 78.3654 135.229 71.5736 144.19 71.5736C152.75 71.5736 156.629 77.6996 156.629 85.4236V124.843Z" fill="white"/>
<path d="M198.851 41.7429C191.896 41.7429 186.011 36.0164 186.011 28.9582C186.011 21.7669 191.896 16.0405 198.851 16.0405C206.208 16.0405 211.959 21.7669 211.959 28.9582C211.959 36.0164 206.208 41.7429 198.851 41.7429Z" fill="white"/>
<path d="M188.552 124.843H209.552V53.7284H188.552V124.843Z" fill="white"/>
<path d="M266.635 53.4621C265.832 53.1957 263.96 52.9294 262.489 52.9294C252.457 52.9294 245.101 58.5227 242.292 64.6486H242.158V53.7284H221.426V124.843H242.292V94.7457C242.292 83.0265 247.374 73.5712 261.686 73.5712C263.559 73.5712 265.03 73.7044 266.635 73.9707V53.4621Z" fill="white"/>
<path d="M407.835 56.4978C409.356 56.0963 410.95 56.8526 411.52 58.2457L415.79 68.684C416.569 70.5858 415.085 72.6338 412.93 72.6341L363.08 72.6398C361.794 72.64 360.772 71.6207 360.839 70.4064C360.889 69.4959 361.548 68.7174 362.476 68.4724L407.835 56.4978Z" fill="white"/>
<path d="M391.059 19.5164C392.381 18.2442 394.59 18.3896 395.713 19.8226L406.048 33.0208C407.17 34.4539 406.674 36.4965 405.003 37.3218L358.199 60.4363C356.861 61.0972 355.214 60.7388 354.315 59.5912L353.784 58.9125C352.885 57.765 353.002 56.1694 354.06 55.1506L391.059 19.5164Z" fill="white"/>
<path d="M362.49 0.619641C360.793 -0.63837 358.291 0.107678 357.663 2.05859L343.142 47.1796C342.768 48.3428 343.5 49.5652 344.748 49.8582C345.683 50.0779 346.662 49.7079 347.18 48.9391L372.495 11.3689C373.344 10.1092 373.043 8.44572 371.801 7.52418L362.49 0.619641Z" fill="white"/>
</svg>
